# xmcd
#
# Track frame offsets: 
#        150
#        15294
#        25746
#        39789
#        52989
#        69056
#        87136
#        104296
#        114601
#        130683
#        144278
#        158792
#        171099
#        183023
#        212683
#        227499
#        239538
#        256188
#        268641
#        278477
#        290923
#        309510
#        327634
#
# Disc length: 4615 seconds
#
# Revision: 0
# Processed by: cddbd v1.5.2PL0 Copyright (c) Steve Scherf et al.
# Submitted via: ExactAudioCopy v0.95b3
#
DISCID=2a120517
DTITLE=Jimi Hendrix  - Polydor Starportrait - 1972 - LP RIP - FLAC
DYEAR=1900
DGENRE=
TTITLE0=Hey Joe
TTITLE1=Little Miss love
TTITLE2=Love or Confusion
TTITLE3=Up From The Skies
TTITLE4=Voodoo Chile
TTITLE5=If Six Was Nine
TTITLE6=Red House
TTITLE7=Crosstown Traffic
TTITLE8=Manic Depression
TTITLE9=May This Be Love
TTITLE10=Foxy Lady
TTITLE11=Purple Haze
TTITLE12=She's So Fine
TTITLE13=3rd Stone From The Sun
TTITLE14=The Wind Cries Mary
TTITLE15=You've Got Me Floating
TTITLE16=Gypsy Eyes
TTITLE17=Remember
TTITLE18=Have You Ever Been
TTITLE19=Castles Made Of Sand
TTITLE20=Bold As Love
TTITLE21=All Along The Watchtower
TTITLE22=I Don't Live Today
EXTD=
EXTT0=
EXTT1=
EXTT2=
EXTT3=
EXTT4=
EXTT5=
EXTT6=
EXTT7=
EXTT8=
EXTT9=
EXTT10=
EXTT11=
EXTT12=
EXTT13=
EXTT14=
EXTT15=
EXTT16=
EXTT17=
EXTT18=
EXTT19=
EXTT20=
EXTT21=
EXTT22=
PLAYORDER=
